<svg xmlns="http://www.w3.org/2000/svg" xmlns:xlink="http://www.w3.org/1999/xlink" width="500" zoomAndPan="magnify" viewBox="0 0 375 374.999991" height="500" preserveAspectRatio="xMidYMid meet" version="1.0"><defs><g/></defs><g fill="#ffffff" fill-opacity="1"><g transform="translate(97.192657, 329.155115)"><g><path d="M 183.796875 -209.90625 C 186.441406 -195.289062 185.5 -181.320312 180.96875 -168 C 176.4375 -154.675781 167.890625 -143.046875 155.328125 -133.109375 C 142.765625 -123.171875 126.175781 -116.34375 105.5625 -112.625 L 67.4375 -105.734375 L 83.78125 -15.109375 L 22.296875 -4.015625 L -23.25 -256.46875 L 76.359375 -274.453125 C 96.503906 -278.085938 114.15625 -277.679688 129.3125 -273.234375 C 144.476562 -268.785156 156.632812 -261.070312 165.78125 -250.09375 C 174.9375 -239.125 180.941406 -225.726562 183.796875 -209.90625 Z M 92.0625 -160.6875 C 103.8125 -162.800781 112.066406 -167.132812 116.828125 -173.6875 C 121.585938 -180.25 123.054688 -188.5625 121.234375 -198.625 C 119.421875 -208.6875 115.140625 -215.953125 108.390625 -220.421875 C 101.640625 -224.898438 92.390625 -226.082031 80.640625 -223.96875 L 47.1875 -217.921875 L 58.609375 -154.640625 Z M 92.0625 -160.6875 "/></g></g></g><g fill="#003780" fill-opacity="1"><g transform="translate(120.632212, 324.782655)"><g><path d="M 8.765625 -1.546875 L 4.734375 -6.5625 L 3.875 -6.40625 L 4.859375 -0.859375 L 1.296875 -0.234375 L -1.296875 -14.890625 L 4.703125 -15.9375 C 5.859375 -16.144531 6.878906 -16.125 7.765625 -15.875 C 8.660156 -15.625 9.367188 -15.175781 9.890625 -14.53125 C 10.410156 -13.894531 10.75 -13.144531 10.90625 -12.28125 C 11.070312 -11.3125 10.945312 -10.394531 10.53125 -9.53125 C 10.125 -8.675781 9.410156 -7.988281 8.390625 -7.46875 L 12.796875 -2.265625 Z M 3.4375 -8.921875 L 5.65625 -9.3125 C 6.3125 -9.425781 6.773438 -9.671875 7.046875 -10.046875 C 7.316406 -10.429688 7.398438 -10.914062 7.296875 -11.5 C 7.203125 -12.050781 6.960938 -12.457031 6.578125 -12.71875 C 6.191406 -12.976562 5.671875 -13.050781 5.015625 -12.9375 L 2.796875 -12.546875 Z M 3.4375 -8.921875 "/></g></g></g><g fill="#003780" fill-opacity="1"><g transform="translate(134.256016, 322.378703)"><g><path d="M 8.265625 -1.296875 C 6.890625 -1.054688 5.566406 -1.15625 4.296875 -1.59375 C 3.035156 -2.03125 1.960938 -2.765625 1.078125 -3.796875 C 0.203125 -4.835938 -0.359375 -6.070312 -0.609375 -7.5 C -0.867188 -8.9375 -0.757812 -10.285156 -0.28125 -11.546875 C 0.195312 -12.804688 0.953125 -13.859375 1.984375 -14.703125 C 3.023438 -15.546875 4.234375 -16.085938 5.609375 -16.328125 C 6.984375 -16.566406 8.300781 -16.46875 9.5625 -16.03125 C 10.832031 -15.59375 11.894531 -14.863281 12.75 -13.84375 C 13.613281 -12.820312 14.175781 -11.59375 14.4375 -10.15625 C 14.6875 -8.726562 14.578125 -7.375 14.109375 -6.09375 C 13.640625 -4.820312 12.890625 -3.765625 11.859375 -2.921875 C 10.835938 -2.078125 9.640625 -1.535156 8.265625 -1.296875 Z M 7.6875 -4.5625 C 8.851562 -4.769531 9.71875 -5.328125 10.28125 -6.234375 C 10.84375 -7.140625 11.015625 -8.234375 10.796875 -9.515625 C 10.566406 -10.816406 10.03125 -11.785156 9.1875 -12.421875 C 8.351562 -13.066406 7.351562 -13.285156 6.1875 -13.078125 C 5.007812 -12.867188 4.132812 -12.320312 3.5625 -11.4375 C 2.988281 -10.550781 2.816406 -9.453125 3.046875 -8.140625 C 3.273438 -6.847656 3.8125 -5.875 4.65625 -5.21875 C 5.5 -4.570312 6.507812 -4.351562 7.6875 -4.5625 Z M 7.6875 -4.5625 "/></g></g></g><g fill="#003780" fill-opacity="1"><g transform="translate(150.679802, 319.480686)"><g><path d="M -0.609375 -7.484375 C -0.867188 -8.929688 -0.785156 -10.273438 -0.359375 -11.515625 C 0.0664062 -12.765625 0.785156 -13.800781 1.796875 -14.625 C 2.804688 -15.457031 4.019531 -16 5.4375 -16.25 C 7.175781 -16.5625 8.75 -16.367188 10.15625 -15.671875 C 11.570312 -14.972656 12.625 -13.863281 13.3125 -12.34375 L 9.390625 -11.640625 C 8.984375 -12.203125 8.484375 -12.597656 7.890625 -12.828125 C 7.296875 -13.054688 6.65625 -13.113281 5.96875 -13 C 4.875 -12.800781 4.050781 -12.257812 3.5 -11.375 C 2.957031 -10.488281 2.800781 -9.40625 3.03125 -8.125 C 3.257812 -6.84375 3.78125 -5.878906 4.59375 -5.234375 C 5.414062 -4.585938 6.375 -4.363281 7.46875 -4.5625 C 8.15625 -4.675781 8.738281 -4.9375 9.21875 -5.34375 C 9.695312 -5.757812 10.023438 -6.300781 10.203125 -6.96875 L 14.125 -7.671875 C 14 -6.003906 13.394531 -4.601562 12.3125 -3.46875 C 11.226562 -2.34375 9.816406 -1.625 8.078125 -1.3125 C 6.660156 -1.0625 5.332031 -1.15625 4.09375 -1.59375 C 2.863281 -2.03125 1.832031 -2.757812 1 -3.78125 C 0.175781 -4.800781 -0.359375 -6.035156 -0.609375 -7.484375 Z M -0.609375 -7.484375 "/></g></g></g><g fill="#003780" fill-opacity="1"><g transform="translate(166.602103, 316.671159)"><g><path d="M 9.796875 -1.734375 L 3.71875 -7.34375 L 4.859375 -0.859375 L 1.296875 -0.234375 L -1.296875 -14.890625 L 2.265625 -15.515625 L 3.40625 -9.09375 L 7.15625 -16.375 L 11.359375 -17.125 L 6.96875 -8.9375 L 14.171875 -2.5 Z M 9.796875 -1.734375 "/></g></g></g><g fill="#003780" fill-opacity="1"><g transform="translate(117.642751, 306.613377)"><g><path d="M 8.765625 -1.546875 L 4.734375 -6.5625 L 3.875 -6.40625 L 4.859375 -0.859375 L 1.296875 -0.234375 L -1.296875 -14.890625 L 4.703125 -15.9375 C 5.859375 -16.144531 6.878906 -16.125 7.765625 -15.875 C 8.660156 -15.625 9.367188 -15.175781 9.890625 -14.53125 C 10.410156 -13.894531 10.75 -13.144531 10.90625 -12.28125 C 11.070312 -11.3125 10.945312 -10.394531 10.53125 -9.53125 C 10.125 -8.675781 9.410156 -7.988281 8.390625 -7.46875 L 12.796875 -2.265625 Z M 3.4375 -8.921875 L 5.65625 -9.3125 C 6.3125 -9.425781 6.773438 -9.671875 7.046875 -10.046875 C 7.316406 -10.429688 7.398438 -10.914062 7.296875 -11.5 C 7.203125 -12.050781 6.960938 -12.457031 6.578125 -12.71875 C 6.191406 -12.976562 5.671875 -13.050781 5.015625 -12.9375 L 2.796875 -12.546875 Z M 3.4375 -8.921875 "/></g></g></g><g fill="#003780" fill-opacity="1"><g transform="translate(131.266555, 304.209425)"><g><path d="M 8.265625 -1.296875 C 6.890625 -1.054688 5.566406 -1.15625 4.296875 -1.59375 C 3.035156 -2.03125 1.960938 -2.765625 1.078125 -3.796875 C 0.203125 -4.835938 -0.359375 -6.070312 -0.609375 -7.5 C -0.867188 -8.9375 -0.757812 -10.285156 -0.28125 -11.546875 C 0.195312 -12.804688 0.953125 -13.859375 1.984375 -14.703125 C 3.023438 -15.546875 4.234375 -16.085938 5.609375 -16.328125 C 6.984375 -16.566406 8.300781 -16.46875 9.5625 -16.03125 C 10.832031 -15.59375 11.894531 -14.863281 12.75 -13.84375 C 13.613281 -12.820312 14.175781 -11.59375 14.4375 -10.15625 C 14.6875 -8.726562 14.578125 -7.375 14.109375 -6.09375 C 13.640625 -4.820312 12.890625 -3.765625 11.859375 -2.921875 C 10.835938 -2.078125 9.640625 -1.535156 8.265625 -1.296875 Z M 7.6875 -4.5625 C 8.851562 -4.769531 9.71875 -5.328125 10.28125 -6.234375 C 10.84375 -7.140625 11.015625 -8.234375 10.796875 -9.515625 C 10.566406 -10.816406 10.03125 -11.785156 9.1875 -12.421875 C 8.351562 -13.066406 7.351562 -13.285156 6.1875 -13.078125 C 5.007812 -12.867188 4.132812 -12.320312 3.5625 -11.4375 C 2.988281 -10.550781 2.816406 -9.453125 3.046875 -8.140625 C 3.273438 -6.847656 3.8125 -5.875 4.65625 -5.21875 C 5.5 -4.570312 6.507812 -4.351562 7.6875 -4.5625 Z M 7.6875 -4.5625 "/></g></g></g><g fill="#003780" fill-opacity="1"><g transform="translate(147.690341, 301.311408)"><g><path d="M -0.609375 -7.484375 C -0.867188 -8.929688 -0.785156 -10.273438 -0.359375 -11.515625 C 0.0664062 -12.765625 0.785156 -13.800781 1.796875 -14.625 C 2.804688 -15.457031 4.019531 -16 5.4375 -16.25 C 7.175781 -16.5625 8.75 -16.367188 10.15625 -15.671875 C 11.570312 -14.972656 12.625 -13.863281 13.3125 -12.34375 L 9.390625 -11.640625 C 8.984375 -12.203125 8.484375 -12.597656 7.890625 -12.828125 C 7.296875 -13.054688 6.65625 -13.113281 5.96875 -13 C 4.875 -12.800781 4.050781 -12.257812 3.5 -11.375 C 2.957031 -10.488281 2.800781 -9.40625 3.03125 -8.125 C 3.257812 -6.84375 3.78125 -5.878906 4.59375 -5.234375 C 5.414062 -4.585938 6.375 -4.363281 7.46875 -4.5625 C 8.15625 -4.675781 8.738281 -4.9375 9.21875 -5.34375 C 9.695312 -5.757812 10.023438 -6.300781 10.203125 -6.96875 L 14.125 -7.671875 C 14 -6.003906 13.394531 -4.601562 12.3125 -3.46875 C 11.226562 -2.34375 9.816406 -1.625 8.078125 -1.3125 C 6.660156 -1.0625 5.332031 -1.15625 4.09375 -1.59375 C 2.863281 -2.03125 1.832031 -2.757812 1 -3.78125 C 0.175781 -4.800781 -0.359375 -6.035156 -0.609375 -7.484375 Z M -0.609375 -7.484375 "/></g></g></g><g fill="#003780" fill-opacity="1"><g transform="translate(163.612642, 298.501881)"><g><path d="M 9.796875 -1.734375 L 3.71875 -7.34375 L 4.859375 -0.859375 L 1.296875 -0.234375 L -1.296875 -14.890625 L 2.265625 -15.515625 L 3.40625 -9.09375 L 7.15625 -16.375 L 11.359375 -17.125 L 6.96875 -8.9375 L 14.171875 -2.5 Z M 9.796875 -1.734375 "/></g></g></g><g fill="#003780" fill-opacity="1"><g transform="translate(114.498705, 288.893809)"><g><path d="M 8.765625 -1.546875 L 4.734375 -6.5625 L 3.875 -6.40625 L 4.859375 -0.859375 L 1.296875 -0.234375 L -1.296875 -14.890625 L 4.703125 -15.9375 C 5.859375 -16.144531 6.878906 -16.125 7.765625 -15.875 C 8.660156 -15.625 9.367188 -15.175781 9.890625 -14.53125 C 10.410156 -13.894531 10.75 -13.144531 10.90625 -12.28125 C 11.070312 -11.3125 10.945312 -10.394531 10.53125 -9.53125 C 10.125 -8.675781 9.410156 -7.988281 8.390625 -7.46875 L 12.796875 -2.265625 Z M 3.4375 -8.921875 L 5.65625 -9.3125 C 6.3125 -9.425781 6.773438 -9.671875 7.046875 -10.046875 C 7.316406 -10.429688 7.398438 -10.914062 7.296875 -11.5 C 7.203125 -12.050781 6.960938 -12.457031 6.578125 -12.71875 C 6.191406 -12.976562 5.671875 -13.050781 5.015625 -12.9375 L 2.796875 -12.546875 Z M 3.4375 -8.921875 "/></g></g></g><g fill="#003780" fill-opacity="1"><g transform="translate(128.12251, 286.489856)"><g><path d="M 8.265625 -1.296875 C 6.890625 -1.054688 5.566406 -1.15625 4.296875 -1.59375 C 3.035156 -2.03125 1.960938 -2.765625 1.078125 -3.796875 C 0.203125 -4.835938 -0.359375 -6.070312 -0.609375 -7.5 C -0.867188 -8.9375 -0.757812 -10.285156 -0.28125 -11.546875 C 0.195312 -12.804688 0.953125 -13.859375 1.984375 -14.703125 C 3.023438 -15.546875 4.234375 -16.085938 5.609375 -16.328125 C 6.984375 -16.566406 8.300781 -16.46875 9.5625 -16.03125 C 10.832031 -15.59375 11.894531 -14.863281 12.75 -13.84375 C 13.613281 -12.820312 14.175781 -11.59375 14.4375 -10.15625 C 14.6875 -8.726562 14.578125 -7.375 14.109375 -6.09375 C 13.640625 -4.820312 12.890625 -3.765625 11.859375 -2.921875 C 10.835938 -2.078125 9.640625 -1.535156 8.265625 -1.296875 Z M 7.6875 -4.5625 C 8.851562 -4.769531 9.71875 -5.328125 10.28125 -6.234375 C 10.84375 -7.140625 11.015625 -8.234375 10.796875 -9.515625 C 10.566406 -10.816406 10.03125 -11.785156 9.1875 -12.421875 C 8.351562 -13.066406 7.351562 -13.285156 6.1875 -13.078125 C 5.007812 -12.867188 4.132812 -12.320312 3.5625 -11.4375 C 2.988281 -10.550781 2.816406 -9.453125 3.046875 -8.140625 C 3.273438 -6.847656 3.8125 -5.875 4.65625 -5.21875 C 5.5 -4.570312 6.507812 -4.351562 7.6875 -4.5625 Z M 7.6875 -4.5625 "/></g></g></g><g fill="#003780" fill-opacity="1"><g transform="translate(144.546296, 283.59184)"><g><path d="M -0.609375 -7.484375 C -0.867188 -8.929688 -0.785156 -10.273438 -0.359375 -11.515625 C 0.0664062 -12.765625 0.785156 -13.800781 1.796875 -14.625 C 2.804688 -15.457031 4.019531 -16 5.4375 -16.25 C 7.175781 -16.5625 8.75 -16.367188 10.15625 -15.671875 C 11.570312 -14.972656 12.625 -13.863281 13.3125 -12.34375 L 9.390625 -11.640625 C 8.984375 -12.203125 8.484375 -12.597656 7.890625 -12.828125 C 7.296875 -13.054688 6.65625 -13.113281 5.96875 -13 C 4.875 -12.800781 4.050781 -12.257812 3.5 -11.375 C 2.957031 -10.488281 2.800781 -9.40625 3.03125 -8.125 C 3.257812 -6.84375 3.78125 -5.878906 4.59375 -5.234375 C 5.414062 -4.585938 6.375 -4.363281 7.46875 -4.5625 C 8.15625 -4.675781 8.738281 -4.9375 9.21875 -5.34375 C 9.695312 -5.757812 10.023438 -6.300781 10.203125 -6.96875 L 14.125 -7.671875 C 14 -6.003906 13.394531 -4.601562 12.3125 -3.46875 C 11.226562 -2.34375 9.816406 -1.625 8.078125 -1.3125 C 6.660156 -1.0625 5.332031 -1.15625 4.09375 -1.59375 C 2.863281 -2.03125 1.832031 -2.757812 1 -3.78125 C 0.175781 -4.800781 -0.359375 -6.035156 -0.609375 -7.484375 Z M -0.609375 -7.484375 "/></g></g></g><g fill="#003780" fill-opacity="1"><g transform="translate(160.468596, 280.782312)"><g><path d="M 9.796875 -1.734375 L 3.71875 -7.34375 L 4.859375 -0.859375 L 1.296875 -0.234375 L -1.296875 -14.890625 L 2.265625 -15.515625 L 3.40625 -9.09375 L 7.15625 -16.375 L 11.359375 -17.125 L 6.96875 -8.9375 L 14.171875 -2.5 Z M 9.796875 -1.734375 "/></g></g></g><g fill="#003780" fill-opacity="1"><g transform="translate(111.021446, 270.719961)"><g><path d="M 8.765625 -1.546875 L 4.734375 -6.5625 L 3.875 -6.40625 L 4.859375 -0.859375 L 1.296875 -0.234375 L -1.296875 -14.890625 L 4.703125 -15.9375 C 5.859375 -16.144531 6.878906 -16.125 7.765625 -15.875 C 8.660156 -15.625 9.367188 -15.175781 9.890625 -14.53125 C 10.410156 -13.894531 10.75 -13.144531 10.90625 -12.28125 C 11.070312 -11.3125 10.945312 -10.394531 10.53125 -9.53125 C 10.125 -8.675781 9.410156 -7.988281 8.390625 -7.46875 L 12.796875 -2.265625 Z M 3.4375 -8.921875 L 5.65625 -9.3125 C 6.3125 -9.425781 6.773438 -9.671875 7.046875 -10.046875 C 7.316406 -10.429688 7.398438 -10.914062 7.296875 -11.5 C 7.203125 -12.050781 6.960938 -12.457031 6.578125 -12.71875 C 6.191406 -12.976562 5.671875 -13.050781 5.015625 -12.9375 L 2.796875 -12.546875 Z M 3.4375 -8.921875 "/></g></g></g><g fill="#003780" fill-opacity="1"><g transform="translate(124.645251, 268.316009)"><g><path d="M 8.265625 -1.296875 C 6.890625 -1.054688 5.566406 -1.15625 4.296875 -1.59375 C 3.035156 -2.03125 1.960938 -2.765625 1.078125 -3.796875 C 0.203125 -4.835938 -0.359375 -6.070312 -0.609375 -7.5 C -0.867188 -8.9375 -0.757812 -10.285156 -0.28125 -11.546875 C 0.195312 -12.804688 0.953125 -13.859375 1.984375 -14.703125 C 3.023438 -15.546875 4.234375 -16.085938 5.609375 -16.328125 C 6.984375 -16.566406 8.300781 -16.46875 9.5625 -16.03125 C 10.832031 -15.59375 11.894531 -14.863281 12.75 -13.84375 C 13.613281 -12.820312 14.175781 -11.59375 14.4375 -10.15625 C 14.6875 -8.726562 14.578125 -7.375 14.109375 -6.09375 C 13.640625 -4.820312 12.890625 -3.765625 11.859375 -2.921875 C 10.835938 -2.078125 9.640625 -1.535156 8.265625 -1.296875 Z M 7.6875 -4.5625 C 8.851562 -4.769531 9.71875 -5.328125 10.28125 -6.234375 C 10.84375 -7.140625 11.015625 -8.234375 10.796875 -9.515625 C 10.566406 -10.816406 10.03125 -11.785156 9.1875 -12.421875 C 8.351562 -13.066406 7.351562 -13.285156 6.1875 -13.078125 C 5.007812 -12.867188 4.132812 -12.320312 3.5625 -11.4375 C 2.988281 -10.550781 2.816406 -9.453125 3.046875 -8.140625 C 3.273438 -6.847656 3.8125 -5.875 4.65625 -5.21875 C 5.5 -4.570312 6.507812 -4.351562 7.6875 -4.5625 Z M 7.6875 -4.5625 "/></g></g></g><g fill="#003780" fill-opacity="1"><g transform="translate(141.069037, 265.417992)"><g><path d="M -0.609375 -7.484375 C -0.867188 -8.929688 -0.785156 -10.273438 -0.359375 -11.515625 C 0.0664062 -12.765625 0.785156 -13.800781 1.796875 -14.625 C 2.804688 -15.457031 4.019531 -16 5.4375 -16.25 C 7.175781 -16.5625 8.75 -16.367188 10.15625 -15.671875 C 11.570312 -14.972656 12.625 -13.863281 13.3125 -12.34375 L 9.390625 -11.640625 C 8.984375 -12.203125 8.484375 -12.597656 7.890625 -12.828125 C 7.296875 -13.054688 6.65625 -13.113281 5.96875 -13 C 4.875 -12.800781 4.050781 -12.257812 3.5 -11.375 C 2.957031 -10.488281 2.800781 -9.40625 3.03125 -8.125 C 3.257812 -6.84375 3.78125 -5.878906 4.59375 -5.234375 C 5.414062 -4.585938 6.375 -4.363281 7.46875 -4.5625 C 8.15625 -4.675781 8.738281 -4.9375 9.21875 -5.34375 C 9.695312 -5.757812 10.023438 -6.300781 10.203125 -6.96875 L 14.125 -7.671875 C 14 -6.003906 13.394531 -4.601562 12.3125 -3.46875 C 11.226562 -2.34375 9.816406 -1.625 8.078125 -1.3125 C 6.660156 -1.0625 5.332031 -1.15625 4.09375 -1.59375 C 2.863281 -2.03125 1.832031 -2.757812 1 -3.78125 C 0.175781 -4.800781 -0.359375 -6.035156 -0.609375 -7.484375 Z M -0.609375 -7.484375 "/></g></g></g><g fill="#003780" fill-opacity="1"><g transform="translate(156.991337, 262.608464)"><g><path d="M 9.796875 -1.734375 L 3.71875 -7.34375 L 4.859375 -0.859375 L 1.296875 -0.234375 L -1.296875 -14.890625 L 2.265625 -15.515625 L 3.40625 -9.09375 L 7.15625 -16.375 L 11.359375 -17.125 L 6.96875 -8.9375 L 14.171875 -2.5 Z M 9.796875 -1.734375 "/></g></g></g><g fill="#003780" fill-opacity="1"><g transform="translate(107.546259, 252.322463)"><g><path d="M 8.765625 -1.546875 L 4.734375 -6.5625 L 3.875 -6.40625 L 4.859375 -0.859375 L 1.296875 -0.234375 L -1.296875 -14.890625 L 4.703125 -15.9375 C 5.859375 -16.144531 6.878906 -16.125 7.765625 -15.875 C 8.660156 -15.625 9.367188 -15.175781 9.890625 -14.53125 C 10.410156 -13.894531 10.75 -13.144531 10.90625 -12.28125 C 11.070312 -11.3125 10.945312 -10.394531 10.53125 -9.53125 C 10.125 -8.675781 9.410156 -7.988281 8.390625 -7.46875 L 12.796875 -2.265625 Z M 3.4375 -8.921875 L 5.65625 -9.3125 C 6.3125 -9.425781 6.773438 -9.671875 7.046875 -10.046875 C 7.316406 -10.429688 7.398438 -10.914062 7.296875 -11.5 C 7.203125 -12.050781 6.960938 -12.457031 6.578125 -12.71875 C 6.191406 -12.976562 5.671875 -13.050781 5.015625 -12.9375 L 2.796875 -12.546875 Z M 3.4375 -8.921875 "/></g></g></g><g fill="#003780" fill-opacity="1"><g transform="translate(121.170063, 249.91851)"><g><path d="M 8.265625 -1.296875 C 6.890625 -1.054688 5.566406 -1.15625 4.296875 -1.59375 C 3.035156 -2.03125 1.960938 -2.765625 1.078125 -3.796875 C 0.203125 -4.835938 -0.359375 -6.070312 -0.609375 -7.5 C -0.867188 -8.9375 -0.757812 -10.285156 -0.28125 -11.546875 C 0.195312 -12.804688 0.953125 -13.859375 1.984375 -14.703125 C 3.023438 -15.546875 4.234375 -16.085938 5.609375 -16.328125 C 6.984375 -16.566406 8.300781 -16.46875 9.5625 -16.03125 C 10.832031 -15.59375 11.894531 -14.863281 12.75 -13.84375 C 13.613281 -12.820312 14.175781 -11.59375 14.4375 -10.15625 C 14.6875 -8.726562 14.578125 -7.375 14.109375 -6.09375 C 13.640625 -4.820312 12.890625 -3.765625 11.859375 -2.921875 C 10.835938 -2.078125 9.640625 -1.535156 8.265625 -1.296875 Z M 7.6875 -4.5625 C 8.851562 -4.769531 9.71875 -5.328125 10.28125 -6.234375 C 10.84375 -7.140625 11.015625 -8.234375 10.796875 -9.515625 C 10.566406 -10.816406 10.03125 -11.785156 9.1875 -12.421875 C 8.351562 -13.066406 7.351562 -13.285156 6.1875 -13.078125 C 5.007812 -12.867188 4.132812 -12.320312 3.5625 -11.4375 C 2.988281 -10.550781 2.816406 -9.453125 3.046875 -8.140625 C 3.273438 -6.847656 3.8125 -5.875 4.65625 -5.21875 C 5.5 -4.570312 6.507812 -4.351562 7.6875 -4.5625 Z M 7.6875 -4.5625 "/></g></g></g><g fill="#003780" fill-opacity="1"><g transform="translate(137.593849, 247.020494)"><g><path d="M -0.609375 -7.484375 C -0.867188 -8.929688 -0.785156 -10.273438 -0.359375 -11.515625 C 0.0664062 -12.765625 0.785156 -13.800781 1.796875 -14.625 C 2.804688 -15.457031 4.019531 -16 5.4375 -16.25 C 7.175781 -16.5625 8.75 -16.367188 10.15625 -15.671875 C 11.570312 -14.972656 12.625 -13.863281 13.3125 -12.34375 L 9.390625 -11.640625 C 8.984375 -12.203125 8.484375 -12.597656 7.890625 -12.828125 C 7.296875 -13.054688 6.65625 -13.113281 5.96875 -13 C 4.875 -12.800781 4.050781 -12.257812 3.5 -11.375 C 2.957031 -10.488281 2.800781 -9.40625 3.03125 -8.125 C 3.257812 -6.84375 3.78125 -5.878906 4.59375 -5.234375 C 5.414062 -4.585938 6.375 -4.363281 7.46875 -4.5625 C 8.15625 -4.675781 8.738281 -4.9375 9.21875 -5.34375 C 9.695312 -5.757812 10.023438 -6.300781 10.203125 -6.96875 L 14.125 -7.671875 C 14 -6.003906 13.394531 -4.601562 12.3125 -3.46875 C 11.226562 -2.34375 9.816406 -1.625 8.078125 -1.3125 C 6.660156 -1.0625 5.332031 -1.15625 4.09375 -1.59375 C 2.863281 -2.03125 1.832031 -2.757812 1 -3.78125 C 0.175781 -4.800781 -0.359375 -6.035156 -0.609375 -7.484375 Z M -0.609375 -7.484375 "/></g></g></g><g fill="#003780" fill-opacity="1"><g transform="translate(153.51615, 244.210966)"><g><path d="M 9.796875 -1.734375 L 3.71875 -7.34375 L 4.859375 -0.859375 L 1.296875 -0.234375 L -1.296875 -14.890625 L 2.265625 -15.515625 L 3.40625 -9.09375 L 7.15625 -16.375 L 11.359375 -17.125 L 6.96875 -8.9375 L 14.171875 -2.5 Z M 9.796875 -1.734375 "/></g></g></g><g fill="#003780" fill-opacity="1"><g transform="translate(104.554534, 234.397056)"><g><path d="M 8.765625 -1.546875 L 4.734375 -6.5625 L 3.875 -6.40625 L 4.859375 -0.859375 L 1.296875 -0.234375 L -1.296875 -14.890625 L 4.703125 -15.9375 C 5.859375 -16.144531 6.878906 -16.125 7.765625 -15.875 C 8.660156 -15.625 9.367188 -15.175781 9.890625 -14.53125 C 10.410156 -13.894531 10.75 -13.144531 10.90625 -12.28125 C 11.070312 -11.3125 10.945312 -10.394531 10.53125 -9.53125 C 10.125 -8.675781 9.410156 -7.988281 8.390625 -7.46875 L 12.796875 -2.265625 Z M 3.4375 -8.921875 L 5.65625 -9.3125 C 6.3125 -9.425781 6.773438 -9.671875 7.046875 -10.046875 C 7.316406 -10.429688 7.398438 -10.914062 7.296875 -11.5 C 7.203125 -12.050781 6.960938 -12.457031 6.578125 -12.71875 C 6.191406 -12.976562 5.671875 -13.050781 5.015625 -12.9375 L 2.796875 -12.546875 Z M 3.4375 -8.921875 "/></g></g></g><g fill="#003780" fill-opacity="1"><g transform="translate(118.178338, 231.993103)"><g><path d="M 8.265625 -1.296875 C 6.890625 -1.054688 5.566406 -1.15625 4.296875 -1.59375 C 3.035156 -2.03125 1.960938 -2.765625 1.078125 -3.796875 C 0.203125 -4.835938 -0.359375 -6.070312 -0.609375 -7.5 C -0.867188 -8.9375 -0.757812 -10.285156 -0.28125 -11.546875 C 0.195312 -12.804688 0.953125 -13.859375 1.984375 -14.703125 C 3.023438 -15.546875 4.234375 -16.085938 5.609375 -16.328125 C 6.984375 -16.566406 8.300781 -16.46875 9.5625 -16.03125 C 10.832031 -15.59375 11.894531 -14.863281 12.75 -13.84375 C 13.613281 -12.820312 14.175781 -11.59375 14.4375 -10.15625 C 14.6875 -8.726562 14.578125 -7.375 14.109375 -6.09375 C 13.640625 -4.820312 12.890625 -3.765625 11.859375 -2.921875 C 10.835938 -2.078125 9.640625 -1.535156 8.265625 -1.296875 Z M 7.6875 -4.5625 C 8.851562 -4.769531 9.71875 -5.328125 10.28125 -6.234375 C 10.84375 -7.140625 11.015625 -8.234375 10.796875 -9.515625 C 10.566406 -10.816406 10.03125 -11.785156 9.1875 -12.421875 C 8.351562 -13.066406 7.351562 -13.285156 6.1875 -13.078125 C 5.007812 -12.867188 4.132812 -12.320312 3.5625 -11.4375 C 2.988281 -10.550781 2.816406 -9.453125 3.046875 -8.140625 C 3.273438 -6.847656 3.8125 -5.875 4.65625 -5.21875 C 5.5 -4.570312 6.507812 -4.351562 7.6875 -4.5625 Z M 7.6875 -4.5625 "/></g></g></g><g fill="#003780" fill-opacity="1"><g transform="translate(134.602124, 229.095087)"><g><path d="M -0.609375 -7.484375 C -0.867188 -8.929688 -0.785156 -10.273438 -0.359375 -11.515625 C 0.0664062 -12.765625 0.785156 -13.800781 1.796875 -14.625 C 2.804688 -15.457031 4.019531 -16 5.4375 -16.25 C 7.175781 -16.5625 8.75 -16.367188 10.15625 -15.671875 C 11.570312 -14.972656 12.625 -13.863281 13.3125 -12.34375 L 9.390625 -11.640625 C 8.984375 -12.203125 8.484375 -12.597656 7.890625 -12.828125 C 7.296875 -13.054688 6.65625 -13.113281 5.96875 -13 C 4.875 -12.800781 4.050781 -12.257812 3.5 -11.375 C 2.957031 -10.488281 2.800781 -9.40625 3.03125 -8.125 C 3.257812 -6.84375 3.78125 -5.878906 4.59375 -5.234375 C 5.414062 -4.585938 6.375 -4.363281 7.46875 -4.5625 C 8.15625 -4.675781 8.738281 -4.9375 9.21875 -5.34375 C 9.695312 -5.757812 10.023438 -6.300781 10.203125 -6.96875 L 14.125 -7.671875 C 14 -6.003906 13.394531 -4.601562 12.3125 -3.46875 C 11.226562 -2.34375 9.816406 -1.625 8.078125 -1.3125 C 6.660156 -1.0625 5.332031 -1.15625 4.09375 -1.59375 C 2.863281 -2.03125 1.832031 -2.757812 1 -3.78125 C 0.175781 -4.800781 -0.359375 -6.035156 -0.609375 -7.484375 Z M -0.609375 -7.484375 "/></g></g></g><g fill="#003780" fill-opacity="1"><g transform="translate(150.524425, 226.285559)"><g><path d="M 9.796875 -1.734375 L 3.71875 -7.34375 L 4.859375 -0.859375 L 1.296875 -0.234375 L -1.296875 -14.890625 L 2.265625 -15.515625 L 3.40625 -9.09375 L 7.15625 -16.375 L 11.359375 -17.125 L 6.96875 -8.9375 L 14.171875 -2.5 Z M 9.796875 -1.734375 "/></g></g></g><g fill="#003780" fill-opacity="1"><g transform="translate(101.410489, 216.677545)"><g><path d="M 8.765625 -1.546875 L 4.734375 -6.5625 L 3.875 -6.40625 L 4.859375 -0.859375 L 1.296875 -0.234375 L -1.296875 -14.890625 L 4.703125 -15.9375 C 5.859375 -16.144531 6.878906 -16.125 7.765625 -15.875 C 8.660156 -15.625 9.367188 -15.175781 9.890625 -14.53125 C 10.410156 -13.894531 10.75 -13.144531 10.90625 -12.28125 C 11.070312 -11.3125 10.945312 -10.394531 10.53125 -9.53125 C 10.125 -8.675781 9.410156 -7.988281 8.390625 -7.46875 L 12.796875 -2.265625 Z M 3.4375 -8.921875 L 5.65625 -9.3125 C 6.3125 -9.425781 6.773438 -9.671875 7.046875 -10.046875 C 7.316406 -10.429688 7.398438 -10.914062 7.296875 -11.5 C 7.203125 -12.050781 6.960938 -12.457031 6.578125 -12.71875 C 6.191406 -12.976562 5.671875 -13.050781 5.015625 -12.9375 L 2.796875 -12.546875 Z M 3.4375 -8.921875 "/></g></g></g><g fill="#003780" fill-opacity="1"><g transform="translate(115.034293, 214.273592)"><g><path d="M 8.265625 -1.296875 C 6.890625 -1.054688 5.566406 -1.15625 4.296875 -1.59375 C 3.035156 -2.03125 1.960938 -2.765625 1.078125 -3.796875 C 0.203125 -4.835938 -0.359375 -6.070312 -0.609375 -7.5 C -0.867188 -8.9375 -0.757812 -10.285156 -0.28125 -11.546875 C 0.195312 -12.804688 0.953125 -13.859375 1.984375 -14.703125 C 3.023438 -15.546875 4.234375 -16.085938 5.609375 -16.328125 C 6.984375 -16.566406 8.300781 -16.46875 9.5625 -16.03125 C 10.832031 -15.59375 11.894531 -14.863281 12.75 -13.84375 C 13.613281 -12.820312 14.175781 -11.59375 14.4375 -10.15625 C 14.6875 -8.726562 14.578125 -7.375 14.109375 -6.09375 C 13.640625 -4.820312 12.890625 -3.765625 11.859375 -2.921875 C 10.835938 -2.078125 9.640625 -1.535156 8.265625 -1.296875 Z M 7.6875 -4.5625 C 8.851562 -4.769531 9.71875 -5.328125 10.28125 -6.234375 C 10.84375 -7.140625 11.015625 -8.234375 10.796875 -9.515625 C 10.566406 -10.816406 10.03125 -11.785156 9.1875 -12.421875 C 8.351562 -13.066406 7.351562 -13.285156 6.1875 -13.078125 C 5.007812 -12.867188 4.132812 -12.320312 3.5625 -11.4375 C 2.988281 -10.550781 2.816406 -9.453125 3.046875 -8.140625 C 3.273438 -6.847656 3.8125 -5.875 4.65625 -5.21875 C 5.5 -4.570312 6.507812 -4.351562 7.6875 -4.5625 Z M 7.6875 -4.5625 "/></g></g></g><g fill="#003780" fill-opacity="1"><g transform="translate(131.458079, 211.375576)"><g><path d="M -0.609375 -7.484375 C -0.867188 -8.929688 -0.785156 -10.273438 -0.359375 -11.515625 C 0.0664062 -12.765625 0.785156 -13.800781 1.796875 -14.625 C 2.804688 -15.457031 4.019531 -16 5.4375 -16.25 C 7.175781 -16.5625 8.75 -16.367188 10.15625 -15.671875 C 11.570312 -14.972656 12.625 -13.863281 13.3125 -12.34375 L 9.390625 -11.640625 C 8.984375 -12.203125 8.484375 -12.597656 7.890625 -12.828125 C 7.296875 -13.054688 6.65625 -13.113281 5.96875 -13 C 4.875 -12.800781 4.050781 -12.257812 3.5 -11.375 C 2.957031 -10.488281 2.800781 -9.40625 3.03125 -8.125 C 3.257812 -6.84375 3.78125 -5.878906 4.59375 -5.234375 C 5.414062 -4.585938 6.375 -4.363281 7.46875 -4.5625 C 8.15625 -4.675781 8.738281 -4.9375 9.21875 -5.34375 C 9.695312 -5.757812 10.023438 -6.300781 10.203125 -6.96875 L 14.125 -7.671875 C 14 -6.003906 13.394531 -4.601562 12.3125 -3.46875 C 11.226562 -2.34375 9.816406 -1.625 8.078125 -1.3125 C 6.660156 -1.0625 5.332031 -1.15625 4.09375 -1.59375 C 2.863281 -2.03125 1.832031 -2.757812 1 -3.78125 C 0.175781 -4.800781 -0.359375 -6.035156 -0.609375 -7.484375 Z M -0.609375 -7.484375 "/></g></g></g><g fill="#003780" fill-opacity="1"><g transform="translate(147.38038, 208.566048)"><g><path d="M 9.796875 -1.734375 L 3.71875 -7.34375 L 4.859375 -0.859375 L 1.296875 -0.234375 L -1.296875 -14.890625 L 2.265625 -15.515625 L 3.40625 -9.09375 L 7.15625 -16.375 L 11.359375 -17.125 L 6.96875 -8.9375 L 14.171875 -2.5 Z M 9.796875 -1.734375 "/></g></g></g><g fill="#003780" fill-opacity="1"><g transform="translate(98.416489, 198.996002)"><g><path d="M 8.765625 -1.546875 L 4.734375 -6.5625 L 3.875 -6.40625 L 4.859375 -0.859375 L 1.296875 -0.234375 L -1.296875 -14.890625 L 4.703125 -15.9375 C 5.859375 -16.144531 6.878906 -16.125 7.765625 -15.875 C 8.660156 -15.625 9.367188 -15.175781 9.890625 -14.53125 C 10.410156 -13.894531 10.75 -13.144531 10.90625 -12.28125 C 11.070312 -11.3125 10.945312 -10.394531 10.53125 -9.53125 C 10.125 -8.675781 9.410156 -7.988281 8.390625 -7.46875 L 12.796875 -2.265625 Z M 3.4375 -8.921875 L 5.65625 -9.3125 C 6.3125 -9.425781 6.773438 -9.671875 7.046875 -10.046875 C 7.316406 -10.429688 7.398438 -10.914062 7.296875 -11.5 C 7.203125 -12.050781 6.960938 -12.457031 6.578125 -12.71875 C 6.191406 -12.976562 5.671875 -13.050781 5.015625 -12.9375 L 2.796875 -12.546875 Z M 3.4375 -8.921875 "/></g></g></g><g fill="#003780" fill-opacity="1"><g transform="translate(112.040293, 196.592049)"><g><path d="M 8.265625 -1.296875 C 6.890625 -1.054688 5.566406 -1.15625 4.296875 -1.59375 C 3.035156 -2.03125 1.960938 -2.765625 1.078125 -3.796875 C 0.203125 -4.835938 -0.359375 -6.070312 -0.609375 -7.5 C -0.867188 -8.9375 -0.757812 -10.285156 -0.28125 -11.546875 C 0.195312 -12.804688 0.953125 -13.859375 1.984375 -14.703125 C 3.023438 -15.546875 4.234375 -16.085938 5.609375 -16.328125 C 6.984375 -16.566406 8.300781 -16.46875 9.5625 -16.03125 C 10.832031 -15.59375 11.894531 -14.863281 12.75 -13.84375 C 13.613281 -12.820312 14.175781 -11.59375 14.4375 -10.15625 C 14.6875 -8.726562 14.578125 -7.375 14.109375 -6.09375 C 13.640625 -4.820312 12.890625 -3.765625 11.859375 -2.921875 C 10.835938 -2.078125 9.640625 -1.535156 8.265625 -1.296875 Z M 7.6875 -4.5625 C 8.851562 -4.769531 9.71875 -5.328125 10.28125 -6.234375 C 10.84375 -7.140625 11.015625 -8.234375 10.796875 -9.515625 C 10.566406 -10.816406 10.03125 -11.785156 9.1875 -12.421875 C 8.351562 -13.066406 7.351562 -13.285156 6.1875 -13.078125 C 5.007812 -12.867188 4.132812 -12.320312 3.5625 -11.4375 C 2.988281 -10.550781 2.816406 -9.453125 3.046875 -8.140625 C 3.273438 -6.847656 3.8125 -5.875 4.65625 -5.21875 C 5.5 -4.570312 6.507812 -4.351562 7.6875 -4.5625 Z M 7.6875 -4.5625 "/></g></g></g><g fill="#003780" fill-opacity="1"><g transform="translate(128.464079, 193.694033)"><g><path d="M -0.609375 -7.484375 C -0.867188 -8.929688 -0.785156 -10.273438 -0.359375 -11.515625 C 0.0664062 -12.765625 0.785156 -13.800781 1.796875 -14.625 C 2.804688 -15.457031 4.019531 -16 5.4375 -16.25 C 7.175781 -16.5625 8.75 -16.367188 10.15625 -15.671875 C 11.570312 -14.972656 12.625 -13.863281 13.3125 -12.34375 L 9.390625 -11.640625 C 8.984375 -12.203125 8.484375 -12.597656 7.890625 -12.828125 C 7.296875 -13.054688 6.65625 -13.113281 5.96875 -13 C 4.875 -12.800781 4.050781 -12.257812 3.5 -11.375 C 2.957031 -10.488281 2.800781 -9.40625 3.03125 -8.125 C 3.257812 -6.84375 3.78125 -5.878906 4.59375 -5.234375 C 5.414062 -4.585938 6.375 -4.363281 7.46875 -4.5625 C 8.15625 -4.675781 8.738281 -4.9375 9.21875 -5.34375 C 9.695312 -5.757812 10.023438 -6.300781 10.203125 -6.96875 L 14.125 -7.671875 C 14 -6.003906 13.394531 -4.601562 12.3125 -3.46875 C 11.226562 -2.34375 9.816406 -1.625 8.078125 -1.3125 C 6.660156 -1.0625 5.332031 -1.15625 4.09375 -1.59375 C 2.863281 -2.03125 1.832031 -2.757812 1 -3.78125 C 0.175781 -4.800781 -0.359375 -6.035156 -0.609375 -7.484375 Z M -0.609375 -7.484375 "/></g></g></g><g fill="#003780" fill-opacity="1"><g transform="translate(144.38638, 190.884505)"><g><path d="M 9.796875 -1.734375 L 3.71875 -7.34375 L 4.859375 -0.859375 L 1.296875 -0.234375 L -1.296875 -14.890625 L 2.265625 -15.515625 L 3.40625 -9.09375 L 7.15625 -16.375 L 11.359375 -17.125 L 6.96875 -8.9375 L 14.171875 -2.5 Z M 9.796875 -1.734375 "/></g></g></g><g fill="#003780" fill-opacity="1"><g transform="translate(95.138826, 181.537292)"><g><path d="M 8.765625 -1.546875 L 4.734375 -6.5625 L 3.875 -6.40625 L 4.859375 -0.859375 L 1.296875 -0.234375 L -1.296875 -14.890625 L 4.703125 -15.9375 C 5.859375 -16.144531 6.878906 -16.125 7.765625 -15.875 C 8.660156 -15.625 9.367188 -15.175781 9.890625 -14.53125 C 10.410156 -13.894531 10.75 -13.144531 10.90625 -12.28125 C 11.070312 -11.3125 10.945312 -10.394531 10.53125 -9.53125 C 10.125 -8.675781 9.410156 -7.988281 8.390625 -7.46875 L 12.796875 -2.265625 Z M 3.4375 -8.921875 L 5.65625 -9.3125 C 6.3125 -9.425781 6.773438 -9.671875 7.046875 -10.046875 C 7.316406 -10.429688 7.398438 -10.914062 7.296875 -11.5 C 7.203125 -12.050781 6.960938 -12.457031 6.578125 -12.71875 C 6.191406 -12.976562 5.671875 -13.050781 5.015625 -12.9375 L 2.796875 -12.546875 Z M 3.4375 -8.921875 "/></g></g></g><g fill="#003780" fill-opacity="1"><g transform="translate(108.76263, 179.133339)"><g><path d="M 8.265625 -1.296875 C 6.890625 -1.054688 5.566406 -1.15625 4.296875 -1.59375 C 3.035156 -2.03125 1.960938 -2.765625 1.078125 -3.796875 C 0.203125 -4.835938 -0.359375 -6.070312 -0.609375 -7.5 C -0.867188 -8.9375 -0.757812 -10.285156 -0.28125 -11.546875 C 0.195312 -12.804688 0.953125 -13.859375 1.984375 -14.703125 C 3.023438 -15.546875 4.234375 -16.085938 5.609375 -16.328125 C 6.984375 -16.566406 8.300781 -16.46875 9.5625 -16.03125 C 10.832031 -15.59375 11.894531 -14.863281 12.75 -13.84375 C 13.613281 -12.820312 14.175781 -11.59375 14.4375 -10.15625 C 14.6875 -8.726562 14.578125 -7.375 14.109375 -6.09375 C 13.640625 -4.820312 12.890625 -3.765625 11.859375 -2.921875 C 10.835938 -2.078125 9.640625 -1.535156 8.265625 -1.296875 Z M 7.6875 -4.5625 C 8.851562 -4.769531 9.71875 -5.328125 10.28125 -6.234375 C 10.84375 -7.140625 11.015625 -8.234375 10.796875 -9.515625 C 10.566406 -10.816406 10.03125 -11.785156 9.1875 -12.421875 C 8.351562 -13.066406 7.351562 -13.285156 6.1875 -13.078125 C 5.007812 -12.867188 4.132812 -12.320312 3.5625 -11.4375 C 2.988281 -10.550781 2.816406 -9.453125 3.046875 -8.140625 C 3.273438 -6.847656 3.8125 -5.875 4.65625 -5.21875 C 5.5 -4.570312 6.507812 -4.351562 7.6875 -4.5625 Z M 7.6875 -4.5625 "/></g></g></g><g fill="#003780" fill-opacity="1"><g transform="translate(125.186416, 176.235323)"><g><path d="M -0.609375 -7.484375 C -0.867188 -8.929688 -0.785156 -10.273438 -0.359375 -11.515625 C 0.0664062 -12.765625 0.785156 -13.800781 1.796875 -14.625 C 2.804688 -15.457031 4.019531 -16 5.4375 -16.25 C 7.175781 -16.5625 8.75 -16.367188 10.15625 -15.671875 C 11.570312 -14.972656 12.625 -13.863281 13.3125 -12.34375 L 9.390625 -11.640625 C 8.984375 -12.203125 8.484375 -12.597656 7.890625 -12.828125 C 7.296875 -13.054688 6.65625 -13.113281 5.96875 -13 C 4.875 -12.800781 4.050781 -12.257812 3.5 -11.375 C 2.957031 -10.488281 2.800781 -9.40625 3.03125 -8.125 C 3.257812 -6.84375 3.78125 -5.878906 4.59375 -5.234375 C 5.414062 -4.585938 6.375 -4.363281 7.46875 -4.5625 C 8.15625 -4.675781 8.738281 -4.9375 9.21875 -5.34375 C 9.695312 -5.757812 10.023438 -6.300781 10.203125 -6.96875 L 14.125 -7.671875 C 14 -6.003906 13.394531 -4.601562 12.3125 -3.46875 C 11.226562 -2.34375 9.816406 -1.625 8.078125 -1.3125 C 6.660156 -1.0625 5.332031 -1.15625 4.09375 -1.59375 C 2.863281 -2.03125 1.832031 -2.757812 1 -3.78125 C 0.175781 -4.800781 -0.359375 -6.035156 -0.609375 -7.484375 Z M -0.609375 -7.484375 "/></g></g></g><g fill="#003780" fill-opacity="1"><g transform="translate(141.108717, 173.425795)"><g><path d="M 9.796875 -1.734375 L 3.71875 -7.34375 L 4.859375 -0.859375 L 1.296875 -0.234375 L -1.296875 -14.890625 L 2.265625 -15.515625 L 3.40625 -9.09375 L 7.15625 -16.375 L 11.359375 -17.125 L 6.96875 -8.9375 L 14.171875 -2.5 Z M 9.796875 -1.734375 "/></g></g></g><g fill="#003780" fill-opacity="1"><g transform="translate(91.900739, 163.87374)"><g><path d="M 8.765625 -1.546875 L 4.734375 -6.5625 L 3.875 -6.40625 L 4.859375 -0.859375 L 1.296875 -0.234375 L -1.296875 -14.890625 L 4.703125 -15.9375 C 5.859375 -16.144531 6.878906 -16.125 7.765625 -15.875 C 8.660156 -15.625 9.367188 -15.175781 9.890625 -14.53125 C 10.410156 -13.894531 10.75 -13.144531 10.90625 -12.28125 C 11.070312 -11.3125 10.945312 -10.394531 10.53125 -9.53125 C 10.125 -8.675781 9.410156 -7.988281 8.390625 -7.46875 L 12.796875 -2.265625 Z M 3.4375 -8.921875 L 5.65625 -9.3125 C 6.3125 -9.425781 6.773438 -9.671875 7.046875 -10.046875 C 7.316406 -10.429688 7.398438 -10.914062 7.296875 -11.5 C 7.203125 -12.050781 6.960938 -12.457031 6.578125 -12.71875 C 6.191406 -12.976562 5.671875 -13.050781 5.015625 -12.9375 L 2.796875 -12.546875 Z M 3.4375 -8.921875 "/></g></g></g><g fill="#003780" fill-opacity="1"><g transform="translate(105.524543, 161.469787)"><g><path d="M 8.265625 -1.296875 C 6.890625 -1.054688 5.566406 -1.15625 4.296875 -1.59375 C 3.035156 -2.03125 1.960938 -2.765625 1.078125 -3.796875 C 0.203125 -4.835938 -0.359375 -6.070312 -0.609375 -7.5 C -0.867188 -8.9375 -0.757812 -10.285156 -0.28125 -11.546875 C 0.195312 -12.804688 0.953125 -13.859375 1.984375 -14.703125 C 3.023438 -15.546875 4.234375 -16.085938 5.609375 -16.328125 C 6.984375 -16.566406 8.300781 -16.46875 9.5625 -16.03125 C 10.832031 -15.59375 11.894531 -14.863281 12.75 -13.84375 C 13.613281 -12.820312 14.175781 -11.59375 14.4375 -10.15625 C 14.6875 -8.726562 14.578125 -7.375 14.109375 -6.09375 C 13.640625 -4.820312 12.890625 -3.765625 11.859375 -2.921875 C 10.835938 -2.078125 9.640625 -1.535156 8.265625 -1.296875 Z M 7.6875 -4.5625 C 8.851562 -4.769531 9.71875 -5.328125 10.28125 -6.234375 C 10.84375 -7.140625 11.015625 -8.234375 10.796875 -9.515625 C 10.566406 -10.816406 10.03125 -11.785156 9.1875 -12.421875 C 8.351562 -13.066406 7.351562 -13.285156 6.1875 -13.078125 C 5.007812 -12.867188 4.132812 -12.320312 3.5625 -11.4375 C 2.988281 -10.550781 2.816406 -9.453125 3.046875 -8.140625 C 3.273438 -6.847656 3.8125 -5.875 4.65625 -5.21875 C 5.5 -4.570312 6.507812 -4.351562 7.6875 -4.5625 Z M 7.6875 -4.5625 "/></g></g></g><g fill="#003780" fill-opacity="1"><g transform="translate(121.948329, 158.571771)"><g><path d="M -0.609375 -7.484375 C -0.867188 -8.929688 -0.785156 -10.273438 -0.359375 -11.515625 C 0.0664062 -12.765625 0.785156 -13.800781 1.796875 -14.625 C 2.804688 -15.457031 4.019531 -16 5.4375 -16.25 C 7.175781 -16.5625 8.75 -16.367188 10.15625 -15.671875 C 11.570312 -14.972656 12.625 -13.863281 13.3125 -12.34375 L 9.390625 -11.640625 C 8.984375 -12.203125 8.484375 -12.597656 7.890625 -12.828125 C 7.296875 -13.054688 6.65625 -13.113281 5.96875 -13 C 4.875 -12.800781 4.050781 -12.257812 3.5 -11.375 C 2.957031 -10.488281 2.800781 -9.40625 3.03125 -8.125 C 3.257812 -6.84375 3.78125 -5.878906 4.59375 -5.234375 C 5.414062 -4.585938 6.375 -4.363281 7.46875 -4.5625 C 8.15625 -4.675781 8.738281 -4.9375 9.21875 -5.34375 C 9.695312 -5.757812 10.023438 -6.300781 10.203125 -6.96875 L 14.125 -7.671875 C 14 -6.003906 13.394531 -4.601562 12.3125 -3.46875 C 11.226562 -2.34375 9.816406 -1.625 8.078125 -1.3125 C 6.660156 -1.0625 5.332031 -1.15625 4.09375 -1.59375 C 2.863281 -2.03125 1.832031 -2.757812 1 -3.78125 C 0.175781 -4.800781 -0.359375 -6.035156 -0.609375 -7.484375 Z M -0.609375 -7.484375 "/></g></g></g><g fill="#003780" fill-opacity="1"><g transform="translate(137.87063, 155.762243)"><g><path d="M 9.796875 -1.734375 L 3.71875 -7.34375 L 4.859375 -0.859375 L 1.296875 -0.234375 L -1.296875 -14.890625 L 2.265625 -15.515625 L 3.40625 -9.09375 L 7.15625 -16.375 L 11.359375 -17.125 L 6.96875 -8.9375 L 14.171875 -2.5 Z M 9.796875 -1.734375 "/></g></g></g><g fill="#003780" fill-opacity="1"><g transform="translate(88.662841, 146.18997)"><g><path d="M 8.765625 -1.546875 L 4.734375 -6.5625 L 3.875 -6.40625 L 4.859375 -0.859375 L 1.296875 -0.234375 L -1.296875 -14.890625 L 4.703125 -15.9375 C 5.859375 -16.144531 6.878906 -16.125 7.765625 -15.875 C 8.660156 -15.625 9.367188 -15.175781 9.890625 -14.53125 C 10.410156 -13.894531 10.75 -13.144531 10.90625 -12.28125 C 11.070312 -11.3125 10.945312 -10.394531 10.53125 -9.53125 C 10.125 -8.675781 9.410156 -7.988281 8.390625 -7.46875 L 12.796875 -2.265625 Z M 3.4375 -8.921875 L 5.65625 -9.3125 C 6.3125 -9.425781 6.773438 -9.671875 7.046875 -10.046875 C 7.316406 -10.429688 7.398438 -10.914062 7.296875 -11.5 C 7.203125 -12.050781 6.960938 -12.457031 6.578125 -12.71875 C 6.191406 -12.976562 5.671875 -13.050781 5.015625 -12.9375 L 2.796875 -12.546875 Z M 3.4375 -8.921875 "/></g></g></g><g fill="#003780" fill-opacity="1"><g transform="translate(102.286646, 143.786017)"><g><path d="M 8.265625 -1.296875 C 6.890625 -1.054688 5.566406 -1.15625 4.296875 -1.59375 C 3.035156 -2.03125 1.960938 -2.765625 1.078125 -3.796875 C 0.203125 -4.835938 -0.359375 -6.070312 -0.609375 -7.5 C -0.867188 -8.9375 -0.757812 -10.285156 -0.28125 -11.546875 C 0.195312 -12.804688 0.953125 -13.859375 1.984375 -14.703125 C 3.023438 -15.546875 4.234375 -16.085938 5.609375 -16.328125 C 6.984375 -16.566406 8.300781 -16.46875 9.5625 -16.03125 C 10.832031 -15.59375 11.894531 -14.863281 12.75 -13.84375 C 13.613281 -12.820312 14.175781 -11.59375 14.4375 -10.15625 C 14.6875 -8.726562 14.578125 -7.375 14.109375 -6.09375 C 13.640625 -4.820312 12.890625 -3.765625 11.859375 -2.921875 C 10.835938 -2.078125 9.640625 -1.535156 8.265625 -1.296875 Z M 7.6875 -4.5625 C 8.851562 -4.769531 9.71875 -5.328125 10.28125 -6.234375 C 10.84375 -7.140625 11.015625 -8.234375 10.796875 -9.515625 C 10.566406 -10.816406 10.03125 -11.785156 9.1875 -12.421875 C 8.351562 -13.066406 7.351562 -13.285156 6.1875 -13.078125 C 5.007812 -12.867188 4.132812 -12.320312 3.5625 -11.4375 C 2.988281 -10.550781 2.816406 -9.453125 3.046875 -8.140625 C 3.273438 -6.847656 3.8125 -5.875 4.65625 -5.21875 C 5.5 -4.570312 6.507812 -4.351562 7.6875 -4.5625 Z M 7.6875 -4.5625 "/></g></g></g><g fill="#003780" fill-opacity="1"><g transform="translate(118.710432, 140.888001)"><g><path d="M -0.609375 -7.484375 C -0.867188 -8.929688 -0.785156 -10.273438 -0.359375 -11.515625 C 0.0664062 -12.765625 0.785156 -13.800781 1.796875 -14.625 C 2.804688 -15.457031 4.019531 -16 5.4375 -16.25 C 7.175781 -16.5625 8.75 -16.367188 10.15625 -15.671875 C 11.570312 -14.972656 12.625 -13.863281 13.3125 -12.34375 L 9.390625 -11.640625 C 8.984375 -12.203125 8.484375 -12.597656 7.890625 -12.828125 C 7.296875 -13.054688 6.65625 -13.113281 5.96875 -13 C 4.875 -12.800781 4.050781 -12.257812 3.5 -11.375 C 2.957031 -10.488281 2.800781 -9.40625 3.03125 -8.125 C 3.257812 -6.84375 3.78125 -5.878906 4.59375 -5.234375 C 5.414062 -4.585938 6.375 -4.363281 7.46875 -4.5625 C 8.15625 -4.675781 8.738281 -4.9375 9.21875 -5.34375 C 9.695312 -5.757812 10.023438 -6.300781 10.203125 -6.96875 L 14.125 -7.671875 C 14 -6.003906 13.394531 -4.601562 12.3125 -3.46875 C 11.226562 -2.34375 9.816406 -1.625 8.078125 -1.3125 C 6.660156 -1.0625 5.332031 -1.15625 4.09375 -1.59375 C 2.863281 -2.03125 1.832031 -2.757812 1 -3.78125 C 0.175781 -4.800781 -0.359375 -6.035156 -0.609375 -7.484375 Z M -0.609375 -7.484375 "/></g></g></g><g fill="#003780" fill-opacity="1"><g transform="translate(134.632732, 138.078473)"><g><path d="M 9.796875 -1.734375 L 3.71875 -7.34375 L 4.859375 -0.859375 L 1.296875 -0.234375 L -1.296875 -14.890625 L 2.265625 -15.515625 L 3.40625 -9.09375 L 7.15625 -16.375 L 11.359375 -17.125 L 6.96875 -8.9375 L 14.171875 -2.5 Z M 9.796875 -1.734375 "/></g></g></g><g fill="#003780" fill-opacity="1"><g transform="translate(85.277162, 128.22425)"><g><path d="M 8.765625 -1.546875 L 4.734375 -6.5625 L 3.875 -6.40625 L 4.859375 -0.859375 L 1.296875 -0.234375 L -1.296875 -14.890625 L 4.703125 -15.9375 C 5.859375 -16.144531 6.878906 -16.125 7.765625 -15.875 C 8.660156 -15.625 9.367188 -15.175781 9.890625 -14.53125 C 10.410156 -13.894531 10.75 -13.144531 10.90625 -12.28125 C 11.070312 -11.3125 10.945312 -10.394531 10.53125 -9.53125 C 10.125 -8.675781 9.410156 -7.988281 8.390625 -7.46875 L 12.796875 -2.265625 Z M 3.4375 -8.921875 L 5.65625 -9.3125 C 6.3125 -9.425781 6.773438 -9.671875 7.046875 -10.046875 C 7.316406 -10.429688 7.398438 -10.914062 7.296875 -11.5 C 7.203125 -12.050781 6.960938 -12.457031 6.578125 -12.71875 C 6.191406 -12.976562 5.671875 -13.050781 5.015625 -12.9375 L 2.796875 -12.546875 Z M 3.4375 -8.921875 "/></g></g></g><g fill="#003780" fill-opacity="1"><g transform="translate(98.900966, 125.820297)"><g><path d="M 8.265625 -1.296875 C 6.890625 -1.054688 5.566406 -1.15625 4.296875 -1.59375 C 3.035156 -2.03125 1.960938 -2.765625 1.078125 -3.796875 C 0.203125 -4.835938 -0.359375 -6.070312 -0.609375 -7.5 C -0.867188 -8.9375 -0.757812 -10.285156 -0.28125 -11.546875 C 0.195312 -12.804688 0.953125 -13.859375 1.984375 -14.703125 C 3.023438 -15.546875 4.234375 -16.085938 5.609375 -16.328125 C 6.984375 -16.566406 8.300781 -16.46875 9.5625 -16.03125 C 10.832031 -15.59375 11.894531 -14.863281 12.75 -13.84375 C 13.613281 -12.820312 14.175781 -11.59375 14.4375 -10.15625 C 14.6875 -8.726562 14.578125 -7.375 14.109375 -6.09375 C 13.640625 -4.820312 12.890625 -3.765625 11.859375 -2.921875 C 10.835938 -2.078125 9.640625 -1.535156 8.265625 -1.296875 Z M 7.6875 -4.5625 C 8.851562 -4.769531 9.71875 -5.328125 10.28125 -6.234375 C 10.84375 -7.140625 11.015625 -8.234375 10.796875 -9.515625 C 10.566406 -10.816406 10.03125 -11.785156 9.1875 -12.421875 C 8.351562 -13.066406 7.351562 -13.285156 6.1875 -13.078125 C 5.007812 -12.867188 4.132812 -12.320312 3.5625 -11.4375 C 2.988281 -10.550781 2.816406 -9.453125 3.046875 -8.140625 C 3.273438 -6.847656 3.8125 -5.875 4.65625 -5.21875 C 5.5 -4.570312 6.507812 -4.351562 7.6875 -4.5625 Z M 7.6875 -4.5625 "/></g></g></g><g fill="#003780" fill-opacity="1"><g transform="translate(115.324752, 122.922281)"><g><path d="M -0.609375 -7.484375 C -0.867188 -8.929688 -0.785156 -10.273438 -0.359375 -11.515625 C 0.0664062 -12.765625 0.785156 -13.800781 1.796875 -14.625 C 2.804688 -15.457031 4.019531 -16 5.4375 -16.25 C 7.175781 -16.5625 8.75 -16.367188 10.15625 -15.671875 C 11.570312 -14.972656 12.625 -13.863281 13.3125 -12.34375 L 9.390625 -11.640625 C 8.984375 -12.203125 8.484375 -12.597656 7.890625 -12.828125 C 7.296875 -13.054688 6.65625 -13.113281 5.96875 -13 C 4.875 -12.800781 4.050781 -12.257812 3.5 -11.375 C 2.957031 -10.488281 2.800781 -9.40625 3.03125 -8.125 C 3.257812 -6.84375 3.78125 -5.878906 4.59375 -5.234375 C 5.414062 -4.585938 6.375 -4.363281 7.46875 -4.5625 C 8.15625 -4.675781 8.738281 -4.9375 9.21875 -5.34375 C 9.695312 -5.757812 10.023438 -6.300781 10.203125 -6.96875 L 14.125 -7.671875 C 14 -6.003906 13.394531 -4.601562 12.3125 -3.46875 C 11.226562 -2.34375 9.816406 -1.625 8.078125 -1.3125 C 6.660156 -1.0625 5.332031 -1.15625 4.09375 -1.59375 C 2.863281 -2.03125 1.832031 -2.757812 1 -3.78125 C 0.175781 -4.800781 -0.359375 -6.035156 -0.609375 -7.484375 Z M -0.609375 -7.484375 "/></g></g></g><g fill="#003780" fill-opacity="1"><g transform="translate(131.247053, 120.112753)"><g><path d="M 9.796875 -1.734375 L 3.71875 -7.34375 L 4.859375 -0.859375 L 1.296875 -0.234375 L -1.296875 -14.890625 L 2.265625 -15.515625 L 3.40625 -9.09375 L 7.15625 -16.375 L 11.359375 -17.125 L 6.96875 -8.9375 L 14.171875 -2.5 Z M 9.796875 -1.734375 "/></g></g></g><g fill="#003780" fill-opacity="1"><g transform="translate(82.039264, 110.540451)"><g><path d="M 8.765625 -1.546875 L 4.734375 -6.5625 L 3.875 -6.40625 L 4.859375 -0.859375 L 1.296875 -0.234375 L -1.296875 -14.890625 L 4.703125 -15.9375 C 5.859375 -16.144531 6.878906 -16.125 7.765625 -15.875 C 8.660156 -15.625 9.367188 -15.175781 9.890625 -14.53125 C 10.410156 -13.894531 10.75 -13.144531 10.90625 -12.28125 C 11.070312 -11.3125 10.945312 -10.394531 10.53125 -9.53125 C 10.125 -8.675781 9.410156 -7.988281 8.390625 -7.46875 L 12.796875 -2.265625 Z M 3.4375 -8.921875 L 5.65625 -9.3125 C 6.3125 -9.425781 6.773438 -9.671875 7.046875 -10.046875 C 7.316406 -10.429688 7.398438 -10.914062 7.296875 -11.5 C 7.203125 -12.050781 6.960938 -12.457031 6.578125 -12.71875 C 6.191406 -12.976562 5.671875 -13.050781 5.015625 -12.9375 L 2.796875 -12.546875 Z M 3.4375 -8.921875 "/></g></g></g><g fill="#003780" fill-opacity="1"><g transform="translate(95.663068, 108.136498)"><g><path d="M 8.265625 -1.296875 C 6.890625 -1.054688 5.566406 -1.15625 4.296875 -1.59375 C 3.035156 -2.03125 1.960938 -2.765625 1.078125 -3.796875 C 0.203125 -4.835938 -0.359375 -6.070312 -0.609375 -7.5 C -0.867188 -8.9375 -0.757812 -10.285156 -0.28125 -11.546875 C 0.195312 -12.804688 0.953125 -13.859375 1.984375 -14.703125 C 3.023438 -15.546875 4.234375 -16.085938 5.609375 -16.328125 C 6.984375 -16.566406 8.300781 -16.46875 9.5625 -16.03125 C 10.832031 -15.59375 11.894531 -14.863281 12.75 -13.84375 C 13.613281 -12.820312 14.175781 -11.59375 14.4375 -10.15625 C 14.6875 -8.726562 14.578125 -7.375 14.109375 -6.09375 C 13.640625 -4.820312 12.890625 -3.765625 11.859375 -2.921875 C 10.835938 -2.078125 9.640625 -1.535156 8.265625 -1.296875 Z M 7.6875 -4.5625 C 8.851562 -4.769531 9.71875 -5.328125 10.28125 -6.234375 C 10.84375 -7.140625 11.015625 -8.234375 10.796875 -9.515625 C 10.566406 -10.816406 10.03125 -11.785156 9.1875 -12.421875 C 8.351562 -13.066406 7.351562 -13.285156 6.1875 -13.078125 C 5.007812 -12.867188 4.132812 -12.320312 3.5625 -11.4375 C 2.988281 -10.550781 2.816406 -9.453125 3.046875 -8.140625 C 3.273438 -6.847656 3.8125 -5.875 4.65625 -5.21875 C 5.5 -4.570312 6.507812 -4.351562 7.6875 -4.5625 Z M 7.6875 -4.5625 "/></g></g></g><g fill="#003780" fill-opacity="1"><g transform="translate(112.086855, 105.238482)"><g><path d="M -0.609375 -7.484375 C -0.867188 -8.929688 -0.785156 -10.273438 -0.359375 -11.515625 C 0.0664062 -12.765625 0.785156 -13.800781 1.796875 -14.625 C 2.804688 -15.457031 4.019531 -16 5.4375 -16.25 C 7.175781 -16.5625 8.75 -16.367188 10.15625 -15.671875 C 11.570312 -14.972656 12.625 -13.863281 13.3125 -12.34375 L 9.390625 -11.640625 C 8.984375 -12.203125 8.484375 -12.597656 7.890625 -12.828125 C 7.296875 -13.054688 6.65625 -13.113281 5.96875 -13 C 4.875 -12.800781 4.050781 -12.257812 3.5 -11.375 C 2.957031 -10.488281 2.800781 -9.40625 3.03125 -8.125 C 3.257812 -6.84375 3.78125 -5.878906 4.59375 -5.234375 C 5.414062 -4.585938 6.375 -4.363281 7.46875 -4.5625 C 8.15625 -4.675781 8.738281 -4.9375 9.21875 -5.34375 C 9.695312 -5.757812 10.023438 -6.300781 10.203125 -6.96875 L 14.125 -7.671875 C 14 -6.003906 13.394531 -4.601562 12.3125 -3.46875 C 11.226562 -2.34375 9.816406 -1.625 8.078125 -1.3125 C 6.660156 -1.0625 5.332031 -1.15625 4.09375 -1.59375 C 2.863281 -2.03125 1.832031 -2.757812 1 -3.78125 C 0.175781 -4.800781 -0.359375 -6.035156 -0.609375 -7.484375 Z M -0.609375 -7.484375 "/></g></g></g><g fill="#003780" fill-opacity="1"><g transform="translate(128.009155, 102.428954)"><g><path d="M 9.796875 -1.734375 L 3.71875 -7.34375 L 4.859375 -0.859375 L 1.296875 -0.234375 L -1.296875 -14.890625 L 2.265625 -15.515625 L 3.40625 -9.09375 L 7.15625 -16.375 L 11.359375 -17.125 L 6.96875 -8.9375 L 14.171875 -2.5 Z M 9.796875 -1.734375 "/></g></g></g><g fill="#003780" fill-opacity="1"><g transform="translate(78.799046, 93.106526)"><g><path d="M 8.765625 -1.546875 L 4.734375 -6.5625 L 3.875 -6.40625 L 4.859375 -0.859375 L 1.296875 -0.234375 L -1.296875 -14.890625 L 4.703125 -15.9375 C 5.859375 -16.144531 6.878906 -16.125 7.765625 -15.875 C 8.660156 -15.625 9.367188 -15.175781 9.890625 -14.53125 C 10.410156 -13.894531 10.75 -13.144531 10.90625 -12.28125 C 11.070312 -11.3125 10.945312 -10.394531 10.53125 -9.53125 C 10.125 -8.675781 9.410156 -7.988281 8.390625 -7.46875 L 12.796875 -2.265625 Z M 3.4375 -8.921875 L 5.65625 -9.3125 C 6.3125 -9.425781 6.773438 -9.671875 7.046875 -10.046875 C 7.316406 -10.429688 7.398438 -10.914062 7.296875 -11.5 C 7.203125 -12.050781 6.960938 -12.457031 6.578125 -12.71875 C 6.191406 -12.976562 5.671875 -13.050781 5.015625 -12.9375 L 2.796875 -12.546875 Z M 3.4375 -8.921875 "/></g></g></g><g fill="#003780" fill-opacity="1"><g transform="translate(92.42285, 90.702573)"><g><path d="M 8.265625 -1.296875 C 6.890625 -1.054688 5.566406 -1.15625 4.296875 -1.59375 C 3.035156 -2.03125 1.960938 -2.765625 1.078125 -3.796875 C 0.203125 -4.835938 -0.359375 -6.070312 -0.609375 -7.5 C -0.867188 -8.9375 -0.757812 -10.285156 -0.28125 -11.546875 C 0.195312 -12.804688 0.953125 -13.859375 1.984375 -14.703125 C 3.023438 -15.546875 4.234375 -16.085938 5.609375 -16.328125 C 6.984375 -16.566406 8.300781 -16.46875 9.5625 -16.03125 C 10.832031 -15.59375 11.894531 -14.863281 12.75 -13.84375 C 13.613281 -12.820312 14.175781 -11.59375 14.4375 -10.15625 C 14.6875 -8.726562 14.578125 -7.375 14.109375 -6.09375 C 13.640625 -4.820312 12.890625 -3.765625 11.859375 -2.921875 C 10.835938 -2.078125 9.640625 -1.535156 8.265625 -1.296875 Z M 7.6875 -4.5625 C 8.851562 -4.769531 9.71875 -5.328125 10.28125 -6.234375 C 10.84375 -7.140625 11.015625 -8.234375 10.796875 -9.515625 C 10.566406 -10.816406 10.03125 -11.785156 9.1875 -12.421875 C 8.351562 -13.066406 7.351562 -13.285156 6.1875 -13.078125 C 5.007812 -12.867188 4.132812 -12.320312 3.5625 -11.4375 C 2.988281 -10.550781 2.816406 -9.453125 3.046875 -8.140625 C 3.273438 -6.847656 3.8125 -5.875 4.65625 -5.21875 C 5.5 -4.570312 6.507812 -4.351562 7.6875 -4.5625 Z M 7.6875 -4.5625 "/></g></g></g><g fill="#003780" fill-opacity="1"><g transform="translate(108.846636, 87.804557)"><g><path d="M -0.609375 -7.484375 C -0.867188 -8.929688 -0.785156 -10.273438 -0.359375 -11.515625 C 0.0664062 -12.765625 0.785156 -13.800781 1.796875 -14.625 C 2.804688 -15.457031 4.019531 -16 5.4375 -16.25 C 7.175781 -16.5625 8.75 -16.367188 10.15625 -15.671875 C 11.570312 -14.972656 12.625 -13.863281 13.3125 -12.34375 L 9.390625 -11.640625 C 8.984375 -12.203125 8.484375 -12.597656 7.890625 -12.828125 C 7.296875 -13.054688 6.65625 -13.113281 5.96875 -13 C 4.875 -12.800781 4.050781 -12.257812 3.5 -11.375 C 2.957031 -10.488281 2.800781 -9.40625 3.03125 -8.125 C 3.257812 -6.84375 3.78125 -5.878906 4.59375 -5.234375 C 5.414062 -4.585938 6.375 -4.363281 7.46875 -4.5625 C 8.15625 -4.675781 8.738281 -4.9375 9.21875 -5.34375 C 9.695312 -5.757812 10.023438 -6.300781 10.203125 -6.96875 L 14.125 -7.671875 C 14 -6.003906 13.394531 -4.601562 12.3125 -3.46875 C 11.226562 -2.34375 9.816406 -1.625 8.078125 -1.3125 C 6.660156 -1.0625 5.332031 -1.15625 4.09375 -1.59375 C 2.863281 -2.03125 1.832031 -2.757812 1 -3.78125 C 0.175781 -4.800781 -0.359375 -6.035156 -0.609375 -7.484375 Z M -0.609375 -7.484375 "/></g></g></g><g fill="#003780" fill-opacity="1"><g transform="translate(124.768937, 84.995029)"><g><path d="M 9.796875 -1.734375 L 3.71875 -7.34375 L 4.859375 -0.859375 L 1.296875 -0.234375 L -1.296875 -14.890625 L 2.265625 -15.515625 L 3.40625 -9.09375 L 7.15625 -16.375 L 11.359375 -17.125 L 6.96875 -8.9375 L 14.171875 -2.5 Z M 9.796875 -1.734375 "/></g></g></g></svg>